<svg xmlns="http://www.w3.org/2000/svg" xmlns:xlink="http://www.w3.org/1999/xlink" width="40" zoomAndPan="magnify" viewBox="0 0 30 30.000001" height="40" preserveAspectRatio="xMidYMid meet" version="1.0"><defs><clipPath id="da1c3978b6"><path d="M 0.484375 0 L 29.515625 0 L 29.515625 29 L 0.484375 29 Z M 0.484375 0 " clip-rule="nonzero"/></clipPath></defs><g clip-path="url(#da1c3978b6)"><path fill="#2b9f8f" d="M 15 28.609375 C 7.226562 28.609375 0.90625 22.285156 0.90625 14.515625 C 0.90625 6.742188 7.226562 0.421875 15 0.421875 C 22.769531 0.421875 29.09375 6.742188 29.09375 14.515625 C 29.09375 22.285156 22.769531 28.609375 15 28.609375 Z M 15 2.589844 C 8.425781 2.589844 3.074219 7.941406 3.074219 14.515625 C 3.074219 21.085938 8.425781 26.441406 15 26.441406 C 21.570312 26.441406 26.925781 21.089844 26.925781 14.515625 C 26.925781 7.9375 21.574219 2.589844 15 2.589844 Z M 15 2.589844 " fill-opacity="1" fill-rule="nonzero"/></g><path fill="#2b9f8f" d="M 19.582031 16.953125 C 18.40625 16.953125 17.265625 16.429688 16.375 15.480469 C 15.46875 14.5 14.972656 13.339844 14.886719 12.003906 C 14.785156 10.601562 15.214844 9.3125 16.097656 8.371094 C 16.976562 7.433594 18.210938 6.925781 19.582031 6.925781 C 20.949219 6.925781 22.183594 7.441406 23.0625 8.378906 C 23.941406 9.316406 24.382812 10.617188 24.28125 12.007812 C 24.191406 13.339844 23.695312 14.5 22.789062 15.480469 C 21.902344 16.429688 20.761719 16.953125 19.582031 16.953125 Z M 23.367188 11.941406 Z M 8.753906 17.183594 C 6.738281 17.183594 4.964844 15.316406 4.800781 13.027344 C 4.71875 11.851562 5.082031 10.769531 5.828125 9.972656 C 6.574219 9.175781 7.605469 8.753906 8.753906 8.753906 C 9.898438 8.753906 10.929688 9.1875 11.671875 9.980469 C 12.414062 10.773438 12.789062 11.867188 12.703125 13.03125 C 12.539062 15.320312 10.765625 17.183594 8.753906 17.183594 Z M 26.136719 21.242188 C 26.027344 20.921875 25.765625 20.582031 25.242188 20.261719 C 23.652344 19.292969 21.695312 18.777344 19.582031 18.777344 C 17.511719 18.777344 15.503906 19.3125 13.925781 20.285156 C 12.144531 21.378906 10.949219 22.976562 10.46875 24.90625 C 10.355469 25.359375 10.1875 26.203125 10.367188 26.675781 C 11.074219 26.941406 11.796875 27.148438 12.539062 27.289062 C 13.28125 27.433594 14.03125 27.511719 14.789062 27.523438 C 15.542969 27.535156 16.296875 27.480469 17.042969 27.363281 C 17.789062 27.242188 18.519531 27.0625 19.234375 26.8125 C 19.949219 26.566406 20.636719 26.261719 21.300781 25.894531 C 21.960938 25.53125 22.585938 25.109375 23.175781 24.632812 C 23.761719 24.160156 24.304688 23.636719 24.804688 23.066406 C 25.300781 22.496094 25.746094 21.890625 26.136719 21.242188 Z M 8.738281 24.363281 C 9.21875 22.453125 10.238281 20.859375 11.820312 19.570312 C 11.984375 19.433594 12.046875 19.261719 12.007812 19.050781 C 11.96875 18.84375 11.847656 18.703125 11.644531 18.636719 C 10.832031 18.378906 9.902344 18.238281 8.753906 18.238281 C 7.140625 18.238281 5.425781 18.675781 4.136719 19.46875 C 3.769531 19.695312 3.410156 19.78125 3.132812 19.859375 C 3.691406 21.085938 4.417969 22.199219 5.316406 23.203125 C 6.214844 24.203125 7.246094 25.046875 8.40625 25.730469 L 8.527344 25.722656 C 8.550781 25.261719 8.625 24.808594 8.738281 24.363281 Z M 8.738281 24.363281 " fill-opacity="1" fill-rule="nonzero"/></svg>