<svg xmlns="http://www.w3.org/2000/svg" xmlns:xlink="http://www.w3.org/1999/xlink" width="40" zoomAndPan="magnify" viewBox="0 0 30 30.000001" height="40" preserveAspectRatio="xMidYMid meet" version="1.0"><defs><clipPath id="95d3074d3d"><path d="M 0.484375 1.265625 L 29.515625 1.265625 L 29.515625 28 L 0.484375 28 Z M 0.484375 1.265625 " clip-rule="nonzero"/></clipPath></defs><g clip-path="url(#95d3074d3d)"><path fill="#f89622" d="M 9.574219 9.445312 C 9.582031 9.457031 9.59375 9.464844 9.601562 9.476562 L 14.675781 14.550781 C 14.753906 14.628906 14.851562 14.671875 14.953125 14.679688 C 14.96875 14.683594 14.984375 14.683594 15 14.683594 C 15.003906 14.683594 15.007812 14.683594 15.015625 14.683594 C 15.128906 14.679688 15.238281 14.632812 15.320312 14.550781 L 20.390625 9.476562 C 20.402344 9.46875 20.414062 9.457031 20.421875 9.445312 L 21.316406 8.550781 C 22.890625 6.976562 22.890625 4.414062 21.316406 2.839844 C 19.738281 1.265625 17.175781 1.265625 15.601562 2.839844 L 14.996094 3.445312 L 14.394531 2.839844 C 12.816406 1.265625 10.253906 1.265625 8.679688 2.839844 C 7.105469 4.414062 7.105469 6.976562 8.679688 8.550781 Z M 9.320312 3.476562 C 9.910156 2.886719 10.699219 2.558594 11.535156 2.558594 C 12.375 2.558594 13.160156 2.886719 13.753906 3.476562 L 14.679688 4.402344 C 14.761719 4.484375 14.878906 4.535156 14.996094 4.535156 C 15.117188 4.535156 15.230469 4.484375 15.316406 4.402344 L 16.242188 3.476562 C 16.832031 2.886719 17.621094 2.558594 18.457031 2.558594 C 19.296875 2.558594 20.085938 2.886719 20.675781 3.476562 C 21.898438 4.699219 21.898438 6.691406 20.675781 7.914062 L 19.753906 8.835938 C 19.742188 8.847656 19.730469 8.859375 19.722656 8.871094 L 14.996094 13.59375 L 10.273438 8.871094 C 10.265625 8.859375 10.253906 8.847656 10.242188 8.835938 L 9.320312 7.914062 C 8.09375 6.691406 8.09375 4.699219 9.320312 3.476562 Z M 29.316406 13.964844 C 28.503906 13.152344 27.277344 12.894531 26.210938 13.292969 C 25.886719 13.171875 25.539062 13.105469 25.179688 13.105469 C 24.402344 13.105469 23.671875 13.40625 23.121094 13.949219 L 19.761719 16.796875 C 19.765625 16.757812 19.765625 16.722656 19.765625 16.6875 C 19.765625 16.4375 19.5625 16.234375 19.3125 16.234375 L 8.945312 16.234375 C 7.464844 16.234375 6.070312 16.8125 5.023438 17.859375 L 0.679688 22.203125 C 0.503906 22.378906 0.503906 22.664062 0.679688 22.84375 C 0.769531 22.929688 0.882812 22.972656 1 22.972656 C 1.113281 22.972656 1.230469 22.929688 1.316406 22.84375 L 5.660156 18.5 C 6.539062 17.621094 7.707031 17.136719 8.945312 17.136719 L 18.808594 17.136719 C 18.605469 17.984375 17.84375 18.613281 16.9375 18.613281 L 11.417969 18.613281 C 11.167969 18.613281 10.964844 18.816406 10.964844 19.0625 C 10.964844 19.3125 11.167969 19.515625 11.417969 19.515625 L 16.9375 19.515625 C 17.734375 19.515625 18.457031 19.179688 18.972656 18.644531 L 23.71875 14.628906 C 23.726562 14.621094 23.738281 14.609375 23.746094 14.601562 C 24.425781 13.921875 25.476562 13.828125 26.257812 14.320312 L 19.074219 21.503906 C 18.40625 22.171875 17.519531 22.539062 16.574219 22.539062 L 9.492188 22.539062 C 8.667969 22.539062 7.894531 22.859375 7.3125 23.441406 L 3.765625 26.988281 C 3.589844 27.164062 3.589844 27.449219 3.765625 27.625 C 3.855469 27.714844 3.972656 27.757812 4.085938 27.757812 C 4.203125 27.757812 4.316406 27.714844 4.40625 27.625 L 7.949219 24.078125 C 8.363281 23.667969 8.910156 23.441406 9.492188 23.441406 L 18.640625 23.441406 C 19.824219 23.441406 20.9375 22.980469 21.777344 22.140625 L 29.316406 14.601562 C 29.492188 14.425781 29.492188 14.140625 29.316406 13.964844 Z M 21.136719 21.503906 C 20.640625 22 20.023438 22.332031 19.347656 22.46875 C 19.472656 22.367188 19.597656 22.257812 19.710938 22.140625 L 27.25 14.601562 C 27.414062 14.441406 27.425781 14.1875 27.292969 14.011719 C 27.652344 14.019531 28.011719 14.125 28.320312 14.320312 Z M 21.136719 21.503906 " fill-opacity="1" fill-rule="nonzero"/></g></svg>