<svg xmlns="http://www.w3.org/2000/svg" xmlns:xlink="http://www.w3.org/1999/xlink" width="40" zoomAndPan="magnify" viewBox="0 0 30 30.000001" height="40" preserveAspectRatio="xMidYMid meet" version="1.0"><path fill="#ee4a62" d="M 26.6875 9.234375 C 26.625 9.121094 26.53125 9.046875 26.40625 9.011719 C 26.28125 8.972656 26.164062 8.984375 26.046875 9.046875 C 25.933594 9.105469 25.855469 9.199219 25.816406 9.324219 C 25.777344 9.445312 25.789062 9.566406 25.847656 9.679688 C 30.222656 17.726562 24.074219 27.929688 14.898438 27.8125 C 14.089844 27.8125 13.285156 27.734375 12.488281 27.574219 C 11.691406 27.414062 10.917969 27.179688 10.167969 26.867188 C 9.417969 26.558594 8.707031 26.175781 8.03125 25.726562 C 7.355469 25.273438 6.730469 24.761719 6.15625 24.1875 C 5.582031 23.613281 5.070312 22.988281 4.617188 22.3125 C 4.167969 21.636719 3.785156 20.925781 3.476562 20.175781 C 3.164062 19.425781 2.929688 18.652344 2.769531 17.855469 C 2.609375 17.058594 2.53125 16.257812 2.53125 15.445312 C 2.414062 6.269531 12.617188 0.121094 20.664062 4.496094 C 20.777344 4.558594 20.898438 4.570312 21.023438 4.53125 C 21.152344 4.492188 21.246094 4.417969 21.304688 4.300781 C 21.367188 4.183594 21.378906 4.0625 21.339844 3.9375 C 21.300781 3.8125 21.226562 3.71875 21.109375 3.65625 C 20.664062 3.421875 20.207031 3.214844 19.734375 3.03125 C 19.265625 2.847656 18.789062 2.691406 18.300781 2.5625 C 17.8125 2.433594 17.320312 2.335938 16.824219 2.261719 C 16.324219 2.1875 15.824219 2.144531 15.320312 2.128906 C 14.816406 2.113281 14.3125 2.125 13.8125 2.167969 C 13.308594 2.207031 12.8125 2.277344 12.316406 2.375 C 11.824219 2.472656 11.335938 2.597656 10.855469 2.75 C 10.375 2.902344 9.90625 3.082031 9.445312 3.289062 C 8.988281 3.496094 8.539062 3.726562 8.105469 3.984375 C 7.671875 4.242188 7.257812 4.523438 6.855469 4.824219 C 6.453125 5.128906 6.070312 5.457031 5.707031 5.804688 C 5.339844 6.152344 4.996094 6.519531 4.675781 6.90625 C 4.351562 7.292969 4.050781 7.695312 3.773438 8.117188 C 3.496094 8.539062 3.246094 8.972656 3.015625 9.421875 C 2.789062 9.871094 2.585938 10.332031 2.414062 10.804688 C 2.238281 11.277344 2.089844 11.757812 1.96875 12.246094 C 1.847656 12.734375 1.753906 13.230469 1.6875 13.730469 C 1.625 14.230469 1.585938 14.730469 1.578125 15.234375 C 1.570312 15.738281 1.59375 16.242188 1.640625 16.742188 C 1.691406 17.242188 1.769531 17.738281 1.875 18.234375 C 1.980469 18.726562 2.113281 19.210938 2.273438 19.6875 C 2.433594 20.164062 2.621094 20.632812 2.832031 21.089844 C 3.046875 21.546875 3.285156 21.988281 3.550781 22.417969 C 3.8125 22.847656 4.101562 23.257812 4.410156 23.65625 C 4.722656 24.050781 5.054688 24.429688 5.40625 24.789062 C 5.757812 25.148438 6.132812 25.488281 6.523438 25.804688 C 6.914062 26.121094 7.324219 26.414062 7.75 26.683594 C 8.175781 26.953125 8.613281 27.199219 9.066406 27.421875 C 9.519531 27.640625 9.984375 27.835938 10.457031 28.003906 C 10.933594 28.171875 11.414062 28.3125 11.90625 28.425781 C 12.398438 28.539062 12.894531 28.625 13.394531 28.679688 C 13.894531 28.738281 14.394531 28.765625 14.898438 28.765625 C 24.78125 28.890625 31.402344 17.902344 26.6875 9.234375 Z M 26.6875 9.234375 " fill-opacity="1" fill-rule="nonzero"/><path fill="#ee4a62" d="M 14.898438 11.636719 C 15.316406 11.636719 15.71875 11.703125 16.109375 11.839844 C 16.234375 11.882812 16.355469 11.875 16.472656 11.816406 C 16.59375 11.761719 16.671875 11.667969 16.714844 11.546875 C 16.925781 10.703125 15.441406 10.738281 14.898438 10.6875 C 8.589844 10.945312 8.589844 19.941406 14.898438 20.203125 C 15.210938 20.203125 15.523438 20.171875 15.828125 20.109375 C 16.132812 20.046875 16.433594 19.957031 16.71875 19.839844 C 17.007812 19.71875 17.28125 19.570312 17.542969 19.398438 C 17.800781 19.226562 18.042969 19.027344 18.261719 18.808594 C 18.484375 18.585938 18.679688 18.34375 18.855469 18.085938 C 19.027344 17.828125 19.175781 17.550781 19.292969 17.265625 C 19.414062 16.976562 19.503906 16.679688 19.566406 16.371094 C 19.628906 16.066406 19.65625 15.757812 19.65625 15.445312 C 19.609375 14.890625 19.640625 13.425781 18.804688 13.632812 C 18.679688 13.675781 18.589844 13.757812 18.53125 13.875 C 18.472656 13.992188 18.464844 14.113281 18.507812 14.238281 C 18.640625 14.628906 18.707031 15.03125 18.707031 15.445312 C 18.515625 20.484375 11.285156 20.484375 11.09375 15.445312 C 11.09375 14.9375 11.191406 14.453125 11.386719 13.988281 C 11.578125 13.523438 11.851562 13.109375 12.210938 12.753906 C 12.566406 12.398438 12.976562 12.121094 13.445312 11.929688 C 13.910156 11.734375 14.394531 11.636719 14.898438 11.636719 Z M 14.898438 11.636719 " fill-opacity="1" fill-rule="nonzero"/><path fill="#ee4a62" d="M 19.457031 8.179688 C 19.519531 8.066406 19.535156 7.945312 19.496094 7.820312 C 19.460938 7.691406 19.386719 7.597656 19.269531 7.535156 C 17.910156 6.78125 16.453125 6.40625 14.898438 6.402344 C 2.910156 6.898438 2.910156 23.988281 14.898438 24.484375 C 15.292969 24.484375 15.679688 24.460938 16.070312 24.410156 C 16.457031 24.359375 16.839844 24.28125 17.21875 24.183594 C 17.597656 24.082031 17.96875 23.957031 18.332031 23.808594 C 18.691406 23.660156 19.042969 23.488281 19.382812 23.296875 C 19.722656 23.101562 20.050781 22.886719 20.363281 22.648438 C 20.675781 22.414062 20.96875 22.15625 21.25 21.882812 C 21.527344 21.609375 21.785156 21.316406 22.027344 21.007812 C 22.269531 20.699219 22.488281 20.375 22.6875 20.039062 C 22.886719 19.703125 23.0625 19.351562 23.214844 18.992188 C 23.371094 18.632812 23.5 18.265625 23.605469 17.886719 C 23.710938 17.511719 23.792969 17.128906 23.847656 16.742188 C 23.902344 16.355469 23.933594 15.964844 23.9375 15.574219 C 23.945312 15.179688 23.925781 14.792969 23.878906 14.402344 C 23.832031 14.011719 23.761719 13.628906 23.667969 13.25 C 23.574219 12.871094 23.453125 12.496094 23.308594 12.132812 C 23.167969 11.769531 23 11.417969 22.808594 11.074219 C 22.746094 10.957031 22.652344 10.882812 22.523438 10.847656 C 22.398438 10.808594 22.277344 10.824219 22.164062 10.886719 C 22.046875 10.949219 21.972656 11.046875 21.933594 11.171875 C 21.898438 11.300781 21.914062 11.421875 21.976562 11.535156 C 24.992188 16.765625 20.941406 23.636719 14.898438 23.53125 C 14.371094 23.53125 13.84375 23.480469 13.324219 23.375 C 12.800781 23.269531 12.296875 23.117188 11.804688 22.914062 C 11.316406 22.710938 10.851562 22.460938 10.410156 22.167969 C 9.96875 21.871094 9.558594 21.535156 9.183594 21.160156 C 8.808594 20.785156 8.472656 20.375 8.175781 19.933594 C 7.882812 19.492188 7.632812 19.027344 7.429688 18.539062 C 7.226562 18.046875 7.074219 17.542969 6.96875 17.019531 C 6.863281 16.5 6.8125 15.976562 6.8125 15.445312 C 6.707031 9.402344 13.578125 5.351562 18.808594 8.367188 C 18.925781 8.429688 19.042969 8.445312 19.171875 8.40625 C 19.296875 8.371094 19.390625 8.296875 19.457031 8.179688 Z M 19.457031 8.179688 " fill-opacity="1" fill-rule="nonzero"/><path fill="#ee4a62" d="M 27.347656 6.359375 L 23.882812 9.824219 C 23.789062 9.914062 23.679688 9.960938 23.550781 9.960938 L 23.511719 9.960938 L 21.234375 9.785156 L 15.238281 15.78125 C 15.144531 15.871094 15.03125 15.914062 14.902344 15.914062 C 14.773438 15.914062 14.660156 15.867188 14.570312 15.773438 C 14.476562 15.683594 14.429688 15.570312 14.429688 15.441406 C 14.429688 15.3125 14.472656 15.199219 14.5625 15.105469 L 20.558594 9.109375 L 20.382812 6.832031 C 20.371094 6.6875 20.417969 6.5625 20.519531 6.460938 L 23.984375 2.996094 C 24.128906 2.855469 24.292969 2.820312 24.484375 2.890625 C 24.675781 2.960938 24.777344 3.097656 24.796875 3.296875 L 24.953125 5.390625 L 27.046875 5.546875 C 27.25 5.566406 27.382812 5.671875 27.453125 5.859375 C 27.523438 6.050781 27.488281 6.214844 27.347656 6.359375 Z M 27.347656 6.359375 " fill-opacity="1" fill-rule="nonzero"/></svg>