<svg xmlns="http://www.w3.org/2000/svg" xmlns:xlink="http://www.w3.org/1999/xlink" width="40" zoomAndPan="magnify" viewBox="0 0 30 30.000001" height="40" preserveAspectRatio="xMidYMid meet" version="1.0"><defs><clipPath id="49e56e59c7"><path d="M 14 2.902344 L 16 2.902344 L 16 7 L 14 7 Z M 14 2.902344 " clip-rule="nonzero"/></clipPath><clipPath id="56f928e3dc"><path d="M 14 22 L 16 22 L 16 26.128906 L 14 26.128906 Z M 14 22 " clip-rule="nonzero"/></clipPath><clipPath id="452da86cd2"><path d="M 24 17 L 28.652344 17 L 28.652344 20 L 24 20 Z M 24 17 " clip-rule="nonzero"/></clipPath><clipPath id="ea8e04098c"><path d="M 1.070312 9 L 6 9 L 6 12 L 1.070312 12 Z M 1.070312 9 " clip-rule="nonzero"/></clipPath><clipPath id="f405178977"><path d="M 24 9 L 28.652344 9 L 28.652344 12 L 24 12 Z M 24 9 " clip-rule="nonzero"/></clipPath><clipPath id="0db29833d3"><path d="M 1.070312 17 L 6 17 L 6 20 L 1.070312 20 Z M 1.070312 17 " clip-rule="nonzero"/></clipPath></defs><g clip-path="url(#49e56e59c7)"><path fill="#4765e4" d="M 14.976562 6.304688 C 15.230469 6.304688 15.398438 6.136719 15.398438 5.882812 L 15.398438 3.324219 C 15.398438 3.070312 15.230469 2.902344 14.976562 2.902344 C 14.726562 2.902344 14.558594 3.070312 14.558594 3.324219 L 14.558594 5.925781 C 14.558594 6.136719 14.726562 6.304688 14.976562 6.304688 Z M 14.976562 6.304688 " fill-opacity="1" fill-rule="nonzero"/></g><g clip-path="url(#56f928e3dc)"><path fill="#4765e4" d="M 14.976562 22.675781 C 14.726562 22.675781 14.558594 22.84375 14.558594 23.09375 L 14.558594 25.699219 C 14.558594 25.949219 14.726562 26.117188 14.976562 26.117188 C 15.230469 26.117188 15.398438 25.949219 15.398438 25.699219 L 15.398438 23.09375 C 15.398438 22.84375 15.230469 22.675781 14.976562 22.675781 Z M 14.976562 22.675781 " fill-opacity="1" fill-rule="nonzero"/></g><path fill="#4765e4" d="M 23.121094 8.738281 L 25.472656 6.890625 C 25.640625 6.765625 25.683594 6.472656 25.554688 6.304688 C 25.429688 6.136719 25.136719 6.09375 24.96875 6.21875 L 22.617188 8.066406 C 22.449219 8.191406 22.40625 8.488281 22.535156 8.65625 C 22.660156 8.863281 22.910156 8.863281 23.121094 8.738281 Z M 23.121094 8.738281 " fill-opacity="1" fill-rule="nonzero"/><path fill="#4765e4" d="M 6.832031 20.242188 L 4.484375 22.046875 C 4.316406 22.171875 4.273438 22.464844 4.398438 22.632812 C 4.523438 22.800781 4.820312 22.84375 4.988281 22.71875 L 7.335938 20.871094 C 7.503906 20.746094 7.546875 20.449219 7.421875 20.28125 C 7.296875 20.113281 7.042969 20.113281 6.832031 20.242188 Z M 6.832031 20.242188 " fill-opacity="1" fill-rule="nonzero"/><path fill="#4765e4" d="M 23.121094 20.242188 C 22.953125 20.113281 22.660156 20.113281 22.535156 20.324219 C 22.40625 20.492188 22.40625 20.785156 22.617188 20.914062 L 24.96875 22.757812 C 25.136719 22.886719 25.429688 22.886719 25.554688 22.675781 C 25.683594 22.507812 25.683594 22.214844 25.472656 22.085938 Z M 23.121094 20.242188 " fill-opacity="1" fill-rule="nonzero"/><path fill="#4765e4" d="M 6.832031 8.738281 C 7 8.863281 7.296875 8.863281 7.421875 8.65625 C 7.546875 8.488281 7.546875 8.191406 7.335938 8.066406 L 4.988281 6.21875 C 4.820312 6.09375 4.523438 6.09375 4.398438 6.304688 C 4.273438 6.511719 4.273438 6.765625 4.484375 6.890625 Z M 6.832031 8.738281 " fill-opacity="1" fill-rule="nonzero"/><path fill="#4765e4" d="M 19.132812 6.933594 C 19.34375 7.058594 19.59375 6.976562 19.722656 6.765625 L 21.023438 4.371094 C 21.148438 4.164062 21.066406 3.910156 20.855469 3.785156 C 20.644531 3.660156 20.394531 3.742188 20.265625 3.953125 L 18.964844 6.34375 C 18.839844 6.554688 18.921875 6.808594 19.132812 6.933594 Z M 19.132812 6.933594 " fill-opacity="1" fill-rule="nonzero"/><path fill="#4765e4" d="M 10.820312 22.046875 C 10.613281 21.917969 10.359375 22.003906 10.234375 22.214844 L 8.933594 24.605469 C 8.804688 24.816406 8.890625 25.066406 9.101562 25.195312 C 9.308594 25.320312 9.5625 25.234375 9.6875 25.027344 L 10.988281 22.632812 C 11.117188 22.421875 11.03125 22.171875 10.820312 22.046875 Z M 10.820312 22.046875 " fill-opacity="1" fill-rule="nonzero"/><g clip-path="url(#452da86cd2)"><path fill="#4765e4" d="M 28.453125 18.433594 L 25.386719 17.429688 C 25.179688 17.34375 24.925781 17.46875 24.84375 17.679688 C 24.757812 17.890625 24.882812 18.140625 25.09375 18.226562 L 28.160156 19.234375 C 28.367188 19.316406 28.621094 19.191406 28.703125 18.980469 C 28.789062 18.769531 28.664062 18.519531 28.453125 18.433594 Z M 28.453125 18.433594 " fill-opacity="1" fill-rule="nonzero"/></g><g clip-path="url(#ea8e04098c)"><path fill="#4765e4" d="M 1.503906 10.542969 L 4.566406 11.550781 C 4.777344 11.636719 5.027344 11.507812 5.113281 11.300781 C 5.195312 11.089844 5.070312 10.835938 4.859375 10.753906 L 1.796875 9.746094 C 1.585938 9.660156 1.335938 9.789062 1.25 9.996094 C 1.167969 10.207031 1.292969 10.460938 1.503906 10.542969 Z M 1.503906 10.542969 " fill-opacity="1" fill-rule="nonzero"/></g><g clip-path="url(#f405178977)"><path fill="#4765e4" d="M 24.925781 11.382812 C 25.011719 11.59375 25.21875 11.71875 25.472656 11.675781 L 28.578125 10.710938 C 28.789062 10.628906 28.914062 10.417969 28.871094 10.164062 C 28.789062 9.957031 28.578125 9.828125 28.328125 9.871094 L 25.21875 10.835938 C 24.96875 10.921875 24.84375 11.171875 24.925781 11.382812 Z M 24.925781 11.382812 " fill-opacity="1" fill-rule="nonzero"/></g><g clip-path="url(#0db29833d3)"><path fill="#4765e4" d="M 5.027344 17.597656 C 4.945312 17.386719 4.734375 17.261719 4.484375 17.300781 L 1.417969 18.269531 C 1.207031 18.351562 1.082031 18.5625 1.125 18.8125 C 1.207031 19.023438 1.417969 19.148438 1.671875 19.105469 L 4.777344 18.140625 C 4.988281 18.058594 5.113281 17.804688 5.027344 17.597656 Z M 5.027344 17.597656 " fill-opacity="1" fill-rule="nonzero"/></g><path fill="#4765e4" d="M 19.511719 22.253906 C 19.386719 22.046875 19.132812 21.960938 18.921875 22.085938 C 18.714844 22.214844 18.628906 22.464844 18.753906 22.675781 L 20.015625 25.066406 C 20.140625 25.277344 20.394531 25.363281 20.601562 25.234375 C 20.8125 25.109375 20.898438 24.859375 20.769531 24.648438 Z M 19.511719 22.253906 " fill-opacity="1" fill-rule="nonzero"/><path fill="#4765e4" d="M 10.445312 6.722656 C 10.570312 6.933594 10.820312 7.015625 11.03125 6.890625 C 11.242188 6.765625 11.324219 6.511719 11.199219 6.304688 L 9.941406 3.910156 C 9.8125 3.699219 9.5625 3.617188 9.351562 3.742188 C 9.140625 3.867188 9.058594 4.121094 9.183594 4.332031 Z M 10.445312 6.722656 " fill-opacity="1" fill-rule="nonzero"/><path fill="#4765e4" d="M 14.976562 8.863281 C 8.972656 8.863281 4.1875 13.984375 3.980469 14.195312 C 3.8125 14.363281 3.8125 14.617188 3.980469 14.785156 C 4.1875 14.992188 8.972656 20.113281 14.976562 20.113281 C 20.980469 20.113281 25.765625 14.992188 25.976562 14.785156 C 26.144531 14.617188 26.144531 14.363281 25.976562 14.195312 C 25.765625 13.984375 20.980469 8.863281 14.976562 8.863281 Z M 14.976562 19.273438 C 12.332031 19.273438 10.191406 17.132812 10.191406 14.488281 C 10.191406 11.84375 12.332031 9.703125 14.976562 9.703125 C 17.621094 9.703125 19.761719 11.84375 19.761719 14.488281 C 19.761719 17.132812 17.621094 19.273438 14.976562 19.273438 Z M 11.074219 10.460938 C 10.023438 11.46875 9.351562 12.894531 9.351562 14.488281 C 9.351562 16.085938 10.023438 17.511719 11.074219 18.519531 C 8.007812 17.386719 5.65625 15.246094 4.902344 14.488281 C 5.65625 13.734375 8.007812 11.59375 11.074219 10.460938 Z M 18.882812 18.519531 C 19.929688 17.511719 20.601562 16.085938 20.601562 14.488281 C 20.601562 12.894531 19.929688 11.46875 18.882812 10.460938 C 21.945312 11.59375 24.296875 13.734375 25.050781 14.488281 C 24.296875 15.246094 21.945312 17.386719 18.882812 18.519531 Z M 18.882812 18.519531 " fill-opacity="1" fill-rule="nonzero"/><path fill="#4765e4" d="M 14.976562 11.300781 C 13.214844 11.300781 11.789062 12.726562 11.789062 14.488281 C 11.789062 16.253906 13.214844 17.679688 14.976562 17.679688 C 16.742188 17.679688 18.167969 16.253906 18.167969 14.488281 C 18.167969 12.726562 16.742188 11.300781 14.976562 11.300781 Z M 14.976562 16.839844 C 13.675781 16.839844 12.625 15.789062 12.625 14.488281 C 12.625 13.1875 13.675781 12.136719 14.976562 12.136719 C 16.277344 12.136719 17.328125 13.1875 17.328125 14.488281 C 17.328125 15.789062 16.277344 16.839844 14.976562 16.839844 Z M 14.976562 16.839844 " fill-opacity="1" fill-rule="nonzero"/></svg>